<svg xmlns="http://www.w3.org/2000/svg" version="1.1" xmlns:xlink="http://www.w3.org/1999/xlink" xmlns:svgjs="http://svgjs.com/svgjs" width="539.854359" height="494.474047"><svg id="SvgjsSvg1003" xmlns="http://www.w3.org/2000/svg" width="539.854359" height="494.474047" viewBox="0 0 539.854359 494.474047"><defs><style>.f{stroke:#015497;stroke-width:12px;}.f,.g{fill:#015497;stroke-miterlimit:10;}.g{stroke:#000;stroke-width:.25px;}</style></defs><g id="SvgjsG1002"><rect style="fill:#ffffff;fill-opacity:1" id="rect5" width="557.64856" height="510.82657" x="-8.4692078" y="-8.9325151" /><path class="g" d="m535.906821,189.791086c-1.062988-.616394-2.166138-1.172485-3.184998-1.854675-13.397156-8.969971-26.760132-17.991089-40.175781-26.933228-22.818542-15.209778-45.669067-30.371582-68.504822-45.555542-11.957275-7.950623-23.930786-15.877075-35.862366-23.866211-12.80658-8.575012-25.553955-17.238586-38.384521-25.777344-1.29657-.862854-2.531494-1.666687-4.602783-.265381-23.82489,16.118835-47.781982,32.042358-71.716675,47.998718l-87.038574,58.022156c-9.758118,6.448608-19.39856,13.077637-29.224976,19.41925-2.792664,1.802246-2.934387,3.64447-2.109375,6.549011,1.509583,5.314575,2.5224,10.768982,3.790894,16.153625,1.786194,7.582336,3.409729,15.211182,5.475037,22.717712,3.363831,12.226013,7.029053,24.369141,10.566223,36.547485l5.432007,17.239258c4.824402,13.464417,8.822388,27.269897,14.391907,40.411682,8.367676,19.744507,17.530396,39.169006,26.876038,58.477417,9.929077,20.513794,22.308411,39.534485,37.052673,56.962097,15.091492,17.838013,32.368164,32.742371,54.444214,41.514954,18.23175,7.244934,36.916748,8.854858,55.776245,4.072632,25.304749-6.416626,45.536682-21.279358,62.303162-40.812317,8.185425-9.536072,15.955811-19.575806,22.712036-30.155212,9.181702-14.377441,17.713318-29.229797,25.577087-44.370117,6.241516-12.017029,11.533325-24.590881,16.401001-37.242859,7.317383-19.019043,14.009033-38.282776,20.735107-57.523499,2.902161-8.302063,5.315552-16.78009,7.786926-25.226257,2.573975-8.796631,5.117493-17.608765,7.369263-26.491516,2.662415-10.503052,4.946106-21.101624,7.501282-31.632751,1.030884-4.248779.362793-6.205017-3.38623-8.379089Zm-31.368164,21.168274c-3.169983,11.725525-6.135193,23.510803-9.549561,35.164612-3.678711,12.55658-7.550049,25.067322-11.75769,37.455261-3.654663,10.759888-7.800354,21.357605-11.905029,31.958862-4.100952,10.591614-7.882324,21.355835-12.77124,31.581848-7.115601,14.883301-14.656128,29.60437-22.831787,43.928772-8.567505,15.011108-18.570618,29.129272-30.542419,41.718994-11.153992,11.729675-23.489197,21.906311-39.083984,27.095215-5.9151,1.968201-12.268433,2.619629-17.407349,3.664795-13.886902-1.450745-25.971008-4.492676-36.964478-11.662354-14.374329-9.37439-26.247131-21.387085-36.068481-35.119141-9.715881-13.584473-18.454468-27.952942-26.625854-42.535583-10.232971-18.261658-18.600769-37.485474-25.773499-57.169067-6.267761-17.200134-12.386841-34.461609-18.145996-51.837097-3.18634-9.613098-5.518738-19.510376-8.199158-29.289673-2.286499-8.34198-4.464233-16.714233-6.812317-25.038635-.689392-2.444031-.02533-3.888062,2.078552-5.287415,29.714905-19.764587,59.374207-39.612854,89.062317-59.417725,21.271301-14.189941,42.542603-28.380432,63.912903-42.420044,1.150146-.755676,3.654846-.777954,4.791809-.026428,17.685181,11.690491,35.220581,23.607178,52.848083,35.385498,17.762939,11.868896,35.607056,23.616333,53.382996,35.465942,15.339844,10.225708,30.612915,20.551758,45.971741,30.748657,2.18866,1.453125,3.070984,3.117554,2.390442,5.634705Z"></path><path d="m26.27548,112.882776c-.320286,7.48256-4.954399,13.745385-11.888226,16.06643-5.309481,1.77729-10.356789-1.056519-11.788565-6.482552-.684866-2.595452-1.754471-5.08976-2.431257-7.686814-.262968-1.009094-.228973-2.313515.193377-3.246323,2.055828-4.540581,5.311833-8.051903,9.878861-10.127152,8.148474-3.702679,16.42998,2.267876,16.035811,11.476411Z"></path><path id="SvgjsPath1001" d="m149.847967,117.177972c-.074043-3.14383-3.673828-6.897584-6.670235-6.955491-3.638169-.070358-8.275796,4.342575-8.187607,7.790932.077774,3.042847,2.509255,5.215828,5.706322,5.099717,5.807305-.210915,9.234009-2.433266,9.15152-5.935158Z"></path><path id="SvgjsPath1000" d="m104.400134,146.076641c.016766-4.270935-1.341007-5.656128-5.52768-5.639351-3.737023.014969-6.167931,2.201386-6.078072,5.466797.080029,2.908264,2.996956,5.335991,6.524094,5.429879,3.545311.094414,5.066826-1.479721,5.081658-5.257325Z"></path><path d="m179.488947,287.402263l-3.399292-10.788208-3.702698.445984c-7.124634,2.176819-12.887756-.948425-18.352844-4.806458-12.158447-8.583252-18.818481-21.145142-24.258911-34.454956-5.973206-14.613037-8.357971-29.865112-7.485046-45.641052.288025-5.2052,1.225098-9.754272,5.923279-13.221069,9.087036-6.705383,17.729797-14.010437,26.749512-20.811218,2.028137-1.529175,4.848267-2.007935,6.329224-2.588318,10.523438,1.166626,18.856323,4.065796,25.650696,10.776062l3.662842,2.467102,10.032532-6.687988-1.59613-2.595947c-6.4198-6.970337-14.366272-11.501221-24.030579-15.727356.689758-.932983,2.018982-1.138428,2.902893-1.876892,5.98114-4.996887,12.242676-9.735107,17.712708-15.25177,14.271484-14.393005,10.779114-38.614868-6.766663-49.037842-10.278564-6.105957-20.777283-4.324036-31.264832-.723145-3.914673,1.344116-7.721252,3.002808-12.751709,4.979614,2.425293-9.34021,4.875366-17.448059,6.579407-25.709839,1.718994-8.334351,2.697693-16.821411,4.027039-25.411438,7.315247-.920044,14.17688-11.67627,14.118896-19.550903-.036682-4.983887-2.278259-8.275146-6.61731-10.321045-6.59137-3.107971-19.891541,2.635437-22.210999,9.562073-.117615.351196-.153259.733032-.200684,1.104004-.542969,4.248962,1.671387,6.271118,7.61853,6.863342.251648,3.281799.505127,6.588074.672668,8.773499-1.973816,2.825195-4.186523,4.756287-4.824341,7.113464-3.218506,11.893921-6.198914,23.860229-8.897034,35.883179-1.133484,5.050781-1.944153,10.325317-1.754333,15.45575.090088,2.435059-.190674,3.448059-2.007568,4.729553-9.658386,6.812256-19.222595,13.757751-28.84314,20.623901-3.768799,2.689758-7.599365,5.292969-11.401855,7.935608-.331665-.025818-.663391-.051636-.995056-.077454,1.626282-6.548462-3.476746-7.745605-7.074341-10.108643-.703918-.462341-1.605713-.612061-2.387939-.968079-15.984619-7.27533-32.399963-8.906494-49.325073-3.754639-2.730347.831055-4.578064,3.709229-3.638123,6.037537,1.011841,2.50647,2.532959,4.476257,5.874451,3.94751,11.282959-1.7854,22.645386-2.38678,33.726196.79834,6.180908,1.776733,12.01593,4.756714,18.616699,7.442688-1.90332,1.43927-3.087463,2.293884-4.227722,3.203552-8.384338,6.688538-18.113281,11.779175-24.61499,20.722778-.353088.485718-1.293579.641785-1.993286.763-6.112305,1.059265-7.857117,4.75061-4.800842,10.189392,2.07782,3.69751,4.071899,7.443237,6.202576,11.109802,6.655029,11.452271,13.021667,23.092041,20.158203,34.237732,4.806152,7.506104,13.243286,8.994873,21.053833,4.510315,3.537781-2.03125,6.674927-4.757751,10.009583-7.146851,1.024048-.733643,2.100342-1.394287,3.441895-2.279114,2.266296,36.257263,11.954285,68.195923,43.204651,88.931396-3.915222,1.78894-9.084595,2.935486-12.541077,6.008606-5.497681,4.887756-10.76001,10.526123-14.467773,16.821228-4.908997,8.334473-2.969727,16.007568,6.490723,18.60083,2.610596.715576,5.870544.648254,8.414673-.24707,12.890686-4.536743,20.491577-14.444946,25.9505-26.439453,1.955078-4.295654,1.346313-7.93634-2.213013-11.546082,4.284546-.706238,8.027344-1.48761,11.809509-1.815735.142151-.012329.774597-.183777,1.711487-.44928Zm-75.112427-100.132019c-3.297363,3.343567-6.686401,6.676331-10.438293,9.471252-4.391174,3.271057-7.041748,2.821777-9.96698-1.836731-5.291504-8.427063-10.193481-17.100525-15.183044-25.7146-2.960754-5.111572-5.778015-10.306274-8.259888-14.747864,10.079285-6.925415,19.772705-13.376831,29.243835-20.139526,16.611572-11.861145,32.821167-24.307495,49.740479-35.705078,7.539307-5.078796,16.088379-9.100769,24.712524-12.034729,17.915771-6.095032,28.773865,8.136536,28.176025,21.221313-.15686,3.432251-2.283325,7.563416-4.837219,9.945679-6.994568,6.524414-14.456909,12.617188-22.173035,18.283081-14.307983,10.506165-29.759888,19.503418-42.531921,32.017517-6.34906,6.220764-12.238342,12.908203-18.482483,19.239685Zm38.670776,128.071045c-1.029785.639099-2.17926,1.166138-3.344971,1.474854-.694763.184021-1.923157.098999-2.202087-.328308-.361755-.554077-.338989-1.823181.073669-2.346313,3.717773-4.713623,7.333008-9.5495,11.505859-13.835876,1.162292-1.193909,4.079956-.678894,7.225281-1.079407-3.709534,7.218079-7.471436,12.524048-13.257751,16.115051Z"></path><path class="f" d="m462.695593,212.188769c.14885-1.024157-1.160937-2.279421-2.245743-2.460045-1.016235-.169207-2.288956.930176-2.687119,1.822334-.953522,2.136406-2.983258,9.348722-3.704373,11.595038-3.749451,11.678834-1.81515,5.74773-5.655101,17.396878-4.101059,12.441331-7.909379,25.001909-12.60077,37.220447-6.894791,17.957475-13.755845,35.988238-21.925371,53.379917-9.296128,19.790086-19.511079,39.157199-32.827242,56.752903-12.76236,16.863832-9.531854,15.568121-20.805739,24.644554-2.025478,1.77707-13.690624,8.567311-12.905534,10.537816,1.10663,2.070897,3.65078.467677,5.082803-.152866,1.146497-.496815,5.675159-2.808917,8.140127-4.987261,3.382166-2.694268,13.027116-11.181187,24.247957-25.810629,13.208085-17.220384,23.469087-36.204257,32.534411-55.775898,7.72403-16.67592,14.574693-33.774172,21.321763-50.87888,4.993332-12.658837,9.38704-25.565508,13.700135-38.477901,3.795868-11.363641,1.918006-5.603019,5.407081-17.068009,1.268509-4.168167,4.211692-12.858097,4.922715-17.738398Z"></path><path class="f" d="m233.418721,231.661115c1.263838-.140867,2.373253-.959015,3.337258-1.636826,8.243638-5.796135,11.2632-7.909723,19.499604-13.716204,11.097108-7.82325,22.277483-15.529542,33.31888-23.430315,13.213784-9.45527,26.309648-19.07522,39.473445-28.600573,11.858323-8.580735,11.03244-7.995544,22.781586-16.722832,1.112824-.82663,3.198588-2.604649,1.716293-4.663834-1.670572-1.838904-3.163099-.449302-4.767517.404892-.287115.15286-.605209.415123-.90921.631714-10.22905,7.287301-7.712051,5.492332-17.932816,12.791214-17.652444,12.606034-35.308024,25.207697-52.937854,37.84534-13.284394,9.522721-26.534159,19.093759-39.79111,28.654703-3.33197,2.403053-1.558197.975244-4.712807,3.595003-.854942.710014-1.389357,2.328158-1.258415,3.58683.064336.618428,1.024527,1.134351,2.182663,1.260887Z"></path></g></svg><style>@media (prefers-color-scheme: light) { :root { filter: none; } }
@media (prefers-color-scheme: dark) { :root { filter: contrast(1) brightness(1.2); } }
</style></svg>